<?xml version="1.0" encoding="UTF-8" standalone="no"?>
<!-- Created with Inkscape (http://www.inkscape.org/) -->

<svg
   xmlns:dc="http://purl.org/dc/elements/1.1/"
   xmlns:cc="http://creativecommons.org/ns#"
   xmlns:rdf="http://www.w3.org/1999/02/22-rdf-syntax-ns#"
   xmlns:svg="http://www.w3.org/2000/svg"
   xmlns="http://www.w3.org/2000/svg"
   xmlns:sodipodi="http://sodipodi.sourceforge.net/DTD/sodipodi-0.dtd"
   xmlns:inkscape="http://www.inkscape.org/namespaces/inkscape"
   width="210mm"
   height="297mm"
   viewBox="0 0 210 297"
   version="1.1"
   id="svg4531"
   inkscape:version="0.92.0 r"
   sodipodi:docname="jarltronikk.svg">
  <defs
     id="defs4525" />
  <sodipodi:namedview
     id="base"
     pagecolor="#ffffff"
     bordercolor="#666666"
     borderopacity="1.0"
     inkscape:pageopacity="0.0"
     inkscape:pageshadow="2"
     inkscape:zoom="0.35"
     inkscape:cx="-185.71429"
     inkscape:cy="560"
     inkscape:document-units="mm"
     inkscape:current-layer="layer1"
     showgrid="false"
     inkscape:window-width="1920"
     inkscape:window-height="1016"
     inkscape:window-x="0"
     inkscape:window-y="27"
     inkscape:window-maximized="1" />
  <metadata
     id="metadata4528">
    <rdf:RDF>
      <cc:Work
         rdf:about="">
        <dc:format>image/svg+xml</dc:format>
        <dc:type
           rdf:resource="http://purl.org/dc/dcmitype/StillImage" />
        <dc:title></dc:title>
      </cc:Work>
    </rdf:RDF>
  </metadata>
  <g
     inkscape:label="Layer 1"
     inkscape:groupmode="layer"
     id="layer1">
    <path
       style="fill:#6ea2ff;fill-opacity:1;fill-rule:evenodd;stroke:#000000;stroke-width:1.39151382px;stroke-linecap:butt;stroke-linejoin:miter;stroke-opacity:1"
       d="M 39.555923,166.11541 C 72.537652,208.37426 58.32942,96.695494 83.37325,87.997058 c 11.00216,-1.944848 21.81603,-40.821532 70.54378,-7.256263 9.91864,7.344333 24.95069,24.859635 -6.15574,50.010975 33.7322,16.56709 26.6726,74.05421 19.79001,74.41837 l -21.11055,-0.59724 c -5.97254,0.56868 4.68724,-39.99246 -14.67843,-38.51049 -21.86159,0.0927 -6.63025,38.86719 -16.51902,38.66335 l -21.14174,0.81554 c -4.93827,0.93959 -4.48751,-29.27378 -4.40133,-33.13594 -0.98649,-24.92181 3.12324,-67.28797 -7.34872,-29.03716 -6.04168,21.60013 -8.320508,47.5256 -26.052128,49.08092 -23.7281,-2.43417 -28.498381,-20.48657 -28.498381,-20.48657 0.168397,-9.39158 7.75896,-14.42811 11.754922,-5.84714"
       id="path5452"
       inkscape:connector-curvature="0"
       sodipodi:nodetypes="cccccccccccccc" />
    <ellipse
       style="fill:#000000;fill-opacity:1;fill-rule:nonzero;stroke:#000000;stroke-width:0;stroke-linejoin:round;stroke-miterlimit:4;stroke-dasharray:none;stroke-dashoffset:0;stroke-opacity:1"
       id="path5454"
       cx="79.256638"
       cy="104.39281"
       rx="4.3760738"
       ry="3.4069619" />
    <path
       style="fill:#6e6f6e;fill-opacity:1;fill-rule:evenodd;stroke:#000000;stroke-width:1.39151382px;stroke-linecap:butt;stroke-linejoin:miter;stroke-opacity:1"
       d="m 89.18043,157.13445 c -45.090183,-4.71292 -47.875113,-29.03994 -41.598243,-38.17108 9.224971,13.4559 29.147467,32.94049 41.502783,26.86354"
       id="path5492"
       inkscape:connector-curvature="0"
       sodipodi:nodetypes="ccc" />
    <path
       style="fill:none;fill-rule:evenodd;stroke:#000000;stroke-width:1.39151382px;stroke-linecap:butt;stroke-linejoin:miter;stroke-opacity:1"
       d="m 120.46166,84.532502 c 33.56437,-8.890936 23.06639,25.310398 16.85885,26.614598 -0.87687,-0.57896 -21.15255,-6.41836 -16.85885,-26.614598 z"
       id="path5535"
       inkscape:connector-curvature="0"
       sodipodi:nodetypes="ccc" />
    <path
       inkscape:connector-curvature="0"
       id="path5617"
       style="font-style:normal;font-weight:normal;font-size:3.17499995px;line-height:6.61458302px;font-family:sans-serif;letter-spacing:0px;word-spacing:0px;fill:#000000;fill-opacity:1;stroke:none;stroke-width:1.39151382px;stroke-linecap:butt;stroke-linejoin:miter;stroke-opacity:1"
       d="m 122.05225,122.19169 h 1.5884 v 11.74282 q 0,2.28262 -0.80992,3.31399 -0.80207,1.03143 -2.58702,1.03143 h -0.60551 v -1.4372 h 0.49555 q 1.05369,0 1.4862,-0.63405 0.43266,-0.63405 0.43266,-2.27417 z" />
    <path
       inkscape:connector-curvature="0"
       id="path5619"
       style="font-style:normal;font-weight:normal;font-size:3.17499995px;line-height:6.61458302px;font-family:sans-serif;letter-spacing:0px;word-spacing:0px;fill:#000000;fill-opacity:1;stroke:none;stroke-width:1.39151382px;stroke-linecap:butt;stroke-linejoin:miter;stroke-opacity:1"
       d="m 129.22111,133.11117 q -1.74884,-0.13796 -2.4526,0.2394 -0.70382,0.37682 -0.77453,1.41393 -0.0563,0.82627 0.41237,1.35485 0.47679,0.52079 1.34742,0.58961 1.19993,0.0943 1.98348,-0.75909 0.79202,-0.86156 0.89554,-2.3792 l 0.0254,-0.34574 z m 2.92183,-0.4139 -0.36773,5.38776 -1.44299,-0.11397 0.0979,-1.43339 q -0.55291,0.82104 -1.3181,1.17605 -0.76473,0.34683 -1.83131,0.2623 -1.34885,-0.10634 -2.09359,-0.97886 -0.73628,-0.88032 -0.6431,-2.24625 0.10854,-1.59349 1.15199,-2.32505 1.05121,-0.7309 3.01962,-0.5757 l 2.02329,0.15978 0.0101,-0.1516 q 0.073,-1.07085 -0.54602,-1.70452 -0.61064,-0.64152 -1.79484,-0.73488 -0.75286,-0.0594 -1.47975,0.0785 -0.7269,0.13796 -1.4121,0.47334 l 0.0979,-1.43333 q 0.8145,-0.26667 1.57045,-0.36755 0.75652,-0.11016 1.46231,-0.0545 1.90567,0.14997 2.77428,1.28681 0.86861,1.13656 0.72136,3.29502 z" />
    <path
       inkscape:connector-curvature="0"
       id="path5621"
       style="font-style:normal;font-weight:normal;font-size:3.17499995px;line-height:6.61458302px;font-family:sans-serif;letter-spacing:0px;word-spacing:0px;fill:#000000;fill-opacity:1;stroke:none;stroke-width:1.39151382px;stroke-linecap:butt;stroke-linejoin:miter;stroke-opacity:1"
       d="m 138.98257,132.65354 q -0.21304,-0.19905 -0.48643,-0.32447 -0.26476,-0.13197 -0.60445,-0.20232 -1.20454,-0.24921 -2.00478,0.46353 -0.79095,0.70587 -1.07332,2.28328 l -0.87678,4.898 -1.42852,-0.29557 1.66438,-9.29801 1.42852,0.29556 -0.25868,1.44452 q 0.59938,-0.75413 1.39034,-1.01229 0.79242,-0.26667 1.81944,-0.0545 0.14658,0.0327 0.31955,0.0938 0.17499,0.0545 0.38345,0.13961 z" />
    <path
       sodipodi:nodetypes="ccccc"
       inkscape:connector-curvature="0"
       id="path5623"
       style="font-style:normal;font-weight:normal;font-size:3.17499995px;line-height:6.61458302px;font-family:sans-serif;letter-spacing:0px;word-spacing:0px;fill:#000000;fill-opacity:1;stroke:none;stroke-width:1.39151382px;stroke-linecap:butt;stroke-linejoin:miter;stroke-opacity:1"
       d="m 141.25754,128.73734 1.37943,0.46952 c -4.9084,14.47915 -2.63256,8.83438 -3.69194,12.5415 l -1.37943,-0.46952 z" />
    <path
       inkscape:connector-curvature="0"
       id="path5625"
       style="font-style:normal;font-weight:normal;font-size:3.17499995px;line-height:6.61458302px;font-family:sans-serif;letter-spacing:0px;word-spacing:0px;fill:#000000;fill-opacity:1;stroke:none;stroke-width:1.39151382px;stroke-linecap:butt;stroke-linejoin:miter;stroke-opacity:1"
       d="m 146.13981,132.31745 -0.97127,2.47731 2.74623,1.24454 -0.43671,1.11404 -2.74623,-1.24453 -1.85703,4.73653 q -0.41845,1.06725 -0.26933,1.49266 0.15622,0.42863 0.98943,0.80643 l 1.36949,0.62063 -0.47019,1.19972 -1.36944,-0.62058 q -1.54336,-0.69944 -1.88903,-1.5809 -0.34237,-0.88921 0.29875,-2.52518 l 1.85698,-4.73654 -0.97817,-0.44335 0.43671,-1.11404 0.97822,0.44335 0.97128,-2.47731 z" />
    <path
       inkscape:connector-curvature="0"
       id="path5627"
       style="font-style:normal;font-weight:normal;font-size:3.17499995px;line-height:6.61458302px;font-family:sans-serif;letter-spacing:0px;word-spacing:0px;fill:#000000;fill-opacity:1;stroke:none;stroke-width:1.39151382px;stroke-linecap:butt;stroke-linejoin:miter;stroke-opacity:1"
       d="m 153.71785,141.93013 q -0.12731,-0.27048 -0.33679,-0.49788 -0.19883,-0.22959 -0.48896,-0.43245 -1.02818,-0.71934 -2.01929,-0.38391 -0.98014,0.3332 -1.79504,1.67939 l -2.53036,4.18074 -1.21935,-0.85306 4.80345,-7.93634 1.21931,0.85306 -0.74622,1.23292 q 0.81966,-0.45534 1.64277,-0.37355 0.82737,0.0747 1.70395,0.68788 0.12478,0.0873 0.26274,0.21649 0.14354,0.11997 0.30585,0.28521 z" />
    <path
       inkscape:connector-curvature="0"
       id="path5629"
       style="font-style:normal;font-weight:normal;font-size:3.17499995px;line-height:6.61458302px;font-family:sans-serif;letter-spacing:0px;word-spacing:0px;fill:#000000;fill-opacity:1;stroke:none;stroke-width:1.39151382px;stroke-linecap:butt;stroke-linejoin:miter;stroke-opacity:1"
       d="m 156.72225,145.60998 q -0.8185,-0.88959 -1.94249,-0.71678 -1.11852,0.16687 -2.24216,1.36195 -1.12359,1.19503 -1.30197,2.39562 -0.16739,1.20058 0.65669,2.09612 0.81292,0.88353 1.93696,0.71072 1.12405,-0.17287 2.24206,-1.36189 1.11248,-1.18319 1.28539,-2.38978 0.17854,-1.21248 -0.63448,-2.09596 z m 0.87211,-0.92755 q 1.32719,1.44244 1.21276,3.19338 -0.11463,1.75088 -1.65739,3.39186 -1.53732,1.63506 -3.17259,1.74511 -1.62969,0.10415 -2.95693,-1.33835 -1.33271,-1.44843 -1.21829,-3.19937 0.12579,-1.75081 1.66287,-3.38587 1.54295,-1.64099 3.16712,-1.75109 1.62969,-0.10416 2.96245,1.34433 z" />
    <path
       inkscape:connector-curvature="0"
       id="path5631"
       style="font-style:normal;font-weight:normal;font-size:3.17499995px;line-height:6.61458302px;font-family:sans-serif;letter-spacing:0px;word-spacing:0px;fill:#000000;fill-opacity:1;stroke:none;stroke-width:1.39151382px;stroke-linecap:butt;stroke-linejoin:miter;stroke-opacity:1"
       d="m 161.69141,159.85562 -4.65859,2.75232 -0.69676,-1.36326 4.61725,-2.72788 q 1.09568,-0.64736 1.40539,-1.42826 0.30941,-0.78097 -0.15977,-1.69978 -0.56424,-1.10396 -1.54463,-1.35438 -0.98035,-0.2503 -2.11048,0.41718 l -4.36233,2.5772 -0.70057,-1.37073 7.71838,-4.56001 0.70062,1.37073 -1.19911,0.70844 q 0.94596,0.078 1.62756,0.53332 0.6853,0.46353 1.1284,1.33022 0.73085,1.42995 0.27897,2.65202 -0.44533,1.21804 -2.04394,2.1626 z" />
    <path
       inkscape:connector-curvature="0"
       id="path5633"
       style="font-style:normal;font-weight:normal;font-size:3.17499995px;line-height:6.61458302px;font-family:sans-serif;letter-spacing:0px;word-spacing:0px;fill:#000000;fill-opacity:1;stroke:none;stroke-width:1.39151382px;stroke-linecap:butt;stroke-linejoin:miter;stroke-opacity:1"
       d="m 165.2463,161.38128 0.49251,1.46262 -8.28069,3.22424 -0.49251,-1.46257 z m 3.22357,-1.25512 0.49251,1.46256 -1.72266,0.67075 -0.49251,-1.46256 z" />
    <path
       inkscape:connector-curvature="0"
       id="path5635"
       style="font-style:normal;font-weight:normal;font-size:3.17499995px;line-height:6.61458302px;font-family:sans-serif;letter-spacing:0px;word-spacing:0px;fill:#000000;fill-opacity:1;stroke:none;stroke-width:1.39151382px;stroke-linecap:butt;stroke-linejoin:miter;stroke-opacity:1"
       d="m 171.00302,174.57635 0.15165,1.5555 -7.18697,0.81105 4.22786,4.18968 0.19274,1.97588 -4.58544,-4.53193 -4.1529,5.73051 -0.1968,-2.01793 3.81073,-5.2668 -4.27777,0.48261 -0.15166,-1.55548 z" />
    <path
       inkscape:connector-curvature="0"
       id="path5637"
       style="font-style:normal;font-weight:normal;font-size:3.17499995px;line-height:6.61458302px;font-family:sans-serif;letter-spacing:0px;word-spacing:0px;fill:#000000;fill-opacity:1;stroke:none;stroke-width:1.39151382px;stroke-linecap:butt;stroke-linejoin:miter;stroke-opacity:1"
       d="m 169.6239,164.74146 0.29165,1.53227 -7.07985,1.55701 4.5861,3.72882 0.37027,1.94643 -4.97282,-4.03214 -3.6161,6.13672 -0.37839,-1.98783 3.31731,-5.63959 -4.21402,0.92678 -0.29165,-1.53225 z" />
  </g>
</svg>
